<svg id="visual" viewBox="0 0 675 900" width="675" height="900" xmlns="http://www.w3.org/2000/svg" xmlns:xlink="http://www.w3.org/1999/xlink" version="1.1"><path d="M0 343L61 343L61 262L123 262L123 217L184 217L184 244L245 244L245 298L307 298L307 307L368 307L368 289L430 289L430 307L491 307L491 217L552 217L552 262L614 262L614 343L675 343L675 172L675 0L675 0L614 0L614 0L552 0L552 0L491 0L491 0L430 0L430 0L368 0L368 0L307 0L307 0L245 0L245 0L184 0L184 0L123 0L123 0L61 0L61 0L0 0Z" fill="#224f44"></path><path d="M0 478L61 478L61 370L123 370L123 307L184 307L184 325L245 325L245 487L307 487L307 406L368 406L368 451L430 451L430 397L491 397L491 370L552 370L552 442L614 442L614 442L675 442L675 235L675 170L675 341L614 341L614 260L552 260L552 215L491 215L491 305L430 305L430 287L368 287L368 305L307 305L307 296L245 296L245 242L184 242L184 215L123 215L123 260L61 260L61 341L0 341Z" fill="#0b4049"></path><path d="M0 568L61 568L61 541L123 541L123 415L184 415L184 550L245 550L245 604L307 604L307 541L368 541L368 631L430 631L430 532L491 532L491 577L552 577L552 532L614 532L614 631L675 631L675 397L675 233L675 440L614 440L614 440L552 440L552 368L491 368L491 395L430 395L430 449L368 449L368 404L307 404L307 485L245 485L245 323L184 323L184 305L123 305L123 368L61 368L61 476L0 476Z" fill="#1a2f42"></path><path d="M0 838L61 838L61 793L123 793L123 838L184 838L184 757L245 757L245 802L307 802L307 793L368 793L368 802L430 802L430 802L491 802L491 802L552 802L552 757L614 757L614 793L675 793L675 793L675 395L675 629L614 629L614 530L552 530L552 575L491 575L491 530L430 530L430 629L368 629L368 539L307 539L307 602L245 602L245 548L184 548L184 413L123 413L123 539L61 539L61 566L0 566Z" fill="#251e2f"></path><path d="M0 901L61 901L61 901L123 901L123 901L184 901L184 901L245 901L245 901L307 901L307 901L368 901L368 901L430 901L430 901L491 901L491 901L552 901L552 901L614 901L614 901L675 901L675 901L675 791L675 791L614 791L614 755L552 755L552 800L491 800L491 800L430 800L430 800L368 800L368 791L307 791L307 800L245 800L245 755L184 755L184 836L123 836L123 791L61 791L61 836L0 836Z" fill="#221018"></path></svg>