<svg id="visual" viewBox="0 0 900 450" width="900" height="450" xmlns="http://www.w3.org/2000/svg" xmlns:xlink="http://www.w3.org/1999/xlink" version="1.1"><rect x="0" y="0" width="900" height="450" fill="#002233"></rect><path d="M0 391L21.5 384.7C43 378.3 86 365.7 128.8 364C171.7 362.3 214.3 371.7 257.2 360.8C300 350 343 319 385.8 314.3C428.7 309.7 471.3 331.3 514.2 341.3C557 351.3 600 349.7 642.8 341C685.7 332.3 728.3 316.7 771.2 309C814 301.3 857 301.7 878.5 301.8L900 302L900 451L878.5 451C857 451 814 451 771.2 451C728.3 451 685.7 451 642.8 451C600 451 557 451 514.2 451C471.3 451 428.7 451 385.8 451C343 451 300 451 257.2 451C214.3 451 171.7 451 128.8 451C86 451 43 451 21.5 451L0 451Z" fill="#0066FF" stroke-linecap="round" stroke-linejoin="miter"></path></svg>